<svg xmlns="http://www.w3.org/2000/svg" viewBox="0 0 128 128" role="img" aria-hidden="true">
  <rect width="128" height="128" rx="28" fill="#eef2f1"/>
  <circle cx="64" cy="64" r="22" fill="none" stroke="#0d5c54" stroke-width="10"/>
  <path fill="#0d5c54" d="M60 28h8v14h-8zM60 86h8v14h-8zM28 60h14v8H28zM86 60h14v8H86z"/>
  <circle cx="64" cy="64" r="8" fill="#b8f229"/>
  <path fill="#0d5c54" d="M38 38l10 10-6 6-10-10zM86 38l10 10-6 6-10-10zM38 90l10-10 6 6-10 10zM86 90l10-10-6-6-10 10z"/>
</svg>
